# xmcd
#
# Track frame offsets:
#	150
#	16131
#	28465
#	45516
#	62182
#	76097
#	88583
#	103918
#	120267
#	136776
#	152282
#	166555
#	178523
#	193665
#	209291
#	229539
#	243476
#	260353
#
# Disc length: 3663 seconds
#
# Revision: 1
# Processed by: cddbd v1.5.2PL0 Copyright (c) Steve Scherf et al.
# Submitted via: audiograbber 1.83.01
#
DISCID=d80e4d12
DTITLE=M T M - M T M 030
DYEAR=2008
DGENRE=Country
TTITLE0=Bonafide Country Boys - Michael Thomas
TTITLE1=Take Me Back And Keep Me There  - Billy Yates
TTITLE2=Nobody Does Nothin  - J C Andersen
TTITLE3=One Hot Summer  - Rustie Blue
TTITLE4=Less I´m Lovin You  - Billy Ryan
TTITLE5=Sugar Can Kiss  - The Broussards
TTITLE6=Lovin You  - Greg Mcdougal With Tammy Cochran
TTITLE7=American Farmer  - Leon Venerable
TTITLE8=Honky Tonk Road Trip  - Rick Monroe
TTITLE9=What Makes A Man A Man  - David Kroll
TTITLE10=Louisianna Boy  - Lisa Dudley
TTITLE11=Hank and The Boys  - Ed Bentley
TTITLE12=Darlin Blue Eyes  - Jerry Croston
TTITLE13=Mississippi Lady - Bill Durham
TTITLE14=Montana  - Ray William Roldan
TTITLE15=I Got What I Am  - Ernie Oldfield
TTITLE16=Come Into My Love  - John Foster
TTITLE17=You´re So Beautiful - Jim and Rachel
EXTD=
EXTT0=
EXTT1=
EXTT2=
EXTT3=
EXTT4=
EXTT5=
EXTT6=
EXTT7=
EXTT8=
EXTT9=
EXTT10=
EXTT11=
EXTT12=
EXTT13=
EXTT14=
EXTT15=
EXTT16=
EXTT17=
PLAYORDER=
